<?xml version="1.0" standalone="no"?>
<!DOCTYPE svg PUBLIC "-//W3C//DTD SVG 20010904//EN"
 "http://www.w3.org/TR/2001/REC-SVG-20010904/DTD/svg10.dtd">
<svg version="1.0" xmlns="http://www.w3.org/2000/svg"
 width="458.000000pt" height="458.000000pt" viewBox="0 0 458.000000 458.000000"
 preserveAspectRatio="xMidYMid meet">
<metadata>
Created by potrace 1.11, written by Peter Selinger 2001-2013
</metadata>
<g transform="translate(0.000000,458.000000) scale(0.100000,-0.100000)"
fill="#000000" stroke="none">
<path d="M1717 4033 c-2 -1 -70 -3 -152 -4 -215 -2 -289 -25 -327 -100 -31
-59 -24 -102 34 -202 83 -144 82 -159 -43 -612 -75 -270 -179 -636 -190 -670
-16 -51 -138 -479 -159 -560 -41 -156 -255 -865 -269 -893 -24 -45 -80 -100
-187 -180 -94 -70 -113 -96 -121 -161 -5 -43 -2 -51 26 -84 36 -40 67 -53 160
-62 81 -9 1468 -9 1541 0 68 8 152 47 169 78 16 30 20 85 9 119 -5 15 -47 62
-93 105 -108 102 -129 137 -127 218 2 70 51 272 155 630 l72 250 123 0 124 0
28 -31 c15 -17 58 -85 95 -150 127 -226 178 -270 317 -273 59 -2 85 2 115 18
46 23 104 84 131 138 27 52 179 562 260 869 44 168 28 249 -61 311 -35 25 -51
28 -130 32 -85 3 -92 2 -160 -33 -44 -22 -134 -87 -231 -167 -88 -72 -171
-136 -185 -144 -41 -20 -126 -35 -202 -35 -62 0 -70 2 -65 18 7 21 114 401
216 762 l77 275 327 0 328 0 27 -33 c30 -35 30 -34 101 -270 72 -235 99 -281
200 -333 40 -21 58 -23 155 -23 195 2 279 57 335 219 33 95 130 433 146 509
22 105 20 235 -4 282 -47 92 -136 151 -263 175 -47 9 -360 12 -1182 13 -615 1
-1119 1 -1120 -1z"/>
</g>
</svg>
